<?xml version="1.0" standalone="no"?>
<!DOCTYPE svg PUBLIC "-//W3C//DTD SVG 20010904//EN"
 "http://www.w3.org/TR/2001/REC-SVG-20010904/DTD/svg10.dtd">
<svg version="1.0" xmlns="http://www.w3.org/2000/svg"
 width="291.000000pt" height="292.000000pt" viewBox="0 0 291.000000 292.000000"
 preserveAspectRatio="xMidYMid meet">

<g transform="translate(0.000000,292.000000) scale(0.100000,-0.100000)"
fill="#000000" stroke="none">
<path d="M728 2913 c404 -2 1061 -2 1460 0 400 1 70 2 -733 2 -803 0 -1130 -1
-727 -2z"/>
<path d="M712 2864 c-84 -42 -134 -116 -148 -221 l-6 -52 -47 -6 c-106 -15
-243 -69 -255 -101 -7 -17 18 -64 33 -64 4 0 34 13 67 29 232 116 497 25 608
-209 29 -61 31 -71 31 -185 0 -116 -1 -123 -33 -188 -148 -302 -561 -342 -759
-74 -99 136 -111 341 -28 483 23 39 25 50 16 71 -8 18 -18 24 -38 21 -20 -2
-33 -16 -59 -63 -110 -199 -72 -457 90 -619 92 -91 229 -156 333 -156 l43 0 0
-50 0 -50 -63 0 c-120 0 -241 -54 -337 -150 -323 -323 -127 -859 331 -905 l66
-6 6 -78 c8 -128 56 -209 149 -255 l52 -26 711 0 711 0 52 26 c94 47 141 127
149 255 l6 79 36 5 c153 23 239 63 332 156 47 46 78 89 105 144 l39 79 0 151
0 151 -39 79 c-82 166 -268 295 -426 295 l-50 0 0 50 0 50 43 0 c161 0 353
131 434 296 l38 79 0 151 0 150 -38 76 c-84 172 -234 277 -428 303 l-47 6 -6
52 c-14 105 -64 179 -148 221 l-52 26 -711 0 -711 0 -52 -26z m308 -239 c0
-29 30 -75 60 -90 43 -22 747 -22 790 0 30 15 60 61 60 90 0 12 15 15 88 15
55 0 92 -4 100 -12 7 -7 12 -33 12 -60 0 -44 -2 -49 -44 -77 -135 -93 -226
-268 -226 -436 0 -168 95 -349 225 -432 l45 -28 0 -116 c0 -111 -1 -116 -23
-126 -38 -18 -137 -113 -143 -139 -7 -29 11 -54 39 -54 12 0 43 23 73 54 61
62 150 109 240 127 120 24 276 -25 375 -118 177 -165 186 -439 21 -615 -233
-249 -632 -162 -742 163 -19 56 -22 78 -17 171 6 117 -1 136 -47 124 -20 -5
-26 -16 -35 -56 -43 -199 55 -440 218 -540 l40 -25 1 -81 c0 -49 -5 -85 -12
-92 -17 -17 -1269 -17 -1286 0 -7 7 -12 44 -12 96 l0 83 73 72 c82 81 129 160
152 258 44 188 -9 363 -152 506 l-73 72 0 118 0 118 45 28 c130 83 225 264
225 432 0 168 -91 343 -226 436 -42 28 -44 33 -44 77 0 27 5 53 12 60 8 8 45
12 100 12 73 0 88 -3 88 -15z m1555 -168 c97 -46 170 -118 216 -212 32 -67 34
-75 34 -185 0 -112 -1 -117 -36 -191 -65 -134 -181 -223 -328 -250 -189 -33
-386 70 -473 248 -32 65 -33 72 -33 188 0 114 1 123 32 188 56 118 174 215
300 247 21 5 77 8 125 6 76 -3 98 -8 163 -39z m-1940 -1122 c129 -34 239 -123
297 -242 32 -65 33 -72 33 -188 0 -114 -2 -123 -32 -187 -133 -281 -498 -344
-718 -124 -30 30 -66 81 -86 121 -33 68 -34 74 -34 190 0 116 1 122 34 190 93
190 307 291 506 240z"/>
<path d="M1348 1811 c-181 -72 -283 -245 -250 -424 11 -59 10 -69 -14 -140
-24 -72 -25 -79 -10 -101 22 -35 45 -39 106 -18 l53 18 70 -35 c66 -34 74 -36
171 -36 88 0 108 3 157 26 295 139 302 548 11 691 -58 29 -78 33 -157 36 -69
1 -101 -2 -137 -17z m244 -88 c108 -49 178 -155 178 -274 0 -53 -6 -77 -30
-127 -83 -165 -271 -218 -427 -120 -41 26 -54 30 -95 25 -26 -4 -48 -2 -48 2
0 5 7 28 15 52 13 36 14 52 4 93 -58 241 180 447 403 349z"/>
<path d="M1373 1592 c-15 -10 -43 -75 -43 -101 0 -71 105 -161 187 -161 71 0
153 76 127 117 -18 29 -48 26 -82 -7 -17 -16 -35 -30 -40 -30 -16 0 -102 60
-102 71 0 6 5 30 12 52 11 35 10 41 -7 53 -21 16 -34 17 -52 6z"/>
<path d="M2246 1114 c-25 -24 -28 -49 -24 -238 3 -162 5 -179 22 -192 11 -8
31 -14 44 -14 24 0 331 172 344 193 14 21 8 64 -9 79 -40 34 -316 188 -338
188 -13 0 -31 -7 -39 -16z m174 -151 c55 -32 100 -60 100 -64 0 -7 -191 -119
-203 -119 -4 0 -7 54 -7 120 0 66 2 120 5 120 3 0 50 -26 105 -57z"/>
<path d="M2349 2322 l-39 -40 0 -85 0 -86 -46 -3 c-88 -6 -88 -70 0 -76 l46
-3 0 -139 c0 -76 3 -145 6 -154 9 -23 61 -21 74 3 5 11 10 81 10 155 l0 136
45 0 c34 0 47 5 55 20 19 36 -3 60 -55 60 l-45 0 0 74 c0 49 4 78 13 83 6 4
43 10 81 13 76 6 101 24 80 58 -9 14 -28 18 -98 20 l-88 3 -39 -39z"/>
<path d="M527 1148 c-23 -14 -45 -38 -58 -65 l-21 -43 -35 15 c-19 8 -51 28
-69 45 -76 66 -124 25 -124 -106 0 -72 14 -114 53 -160 31 -36 33 -44 13 -44
-40 0 -60 -66 -32 -102 35 -47 171 -63 277 -32 64 18 146 71 178 114 26 36 71
129 71 148 0 8 10 27 21 44 75 104 45 208 -52 179 -33 -10 -42 -9 -71 9 -43
26 -103 25 -151 -2z m118 -78 c17 -11 47 -20 68 -20 20 0 37 -3 37 -7 0 -3
-11 -21 -25 -39 -14 -18 -25 -37 -25 -43 0 -30 -44 -121 -73 -151 -42 -43
-117 -77 -192 -85 l-60 -7 34 29 c43 37 38 71 -13 95 -47 23 -85 76 -92 130
l-6 46 58 -29 c117 -56 184 -47 184 26 0 24 7 39 26 54 33 26 41 26 79 1z"/>
<path d="M319 2327 c-54 -36 -61 -73 -57 -292 3 -207 6 -218 65 -256 25 -17
50 -19 233 -19 302 0 300 -2 300 300 0 207 -5 228 -56 269 -25 20 -39 21 -239
21 -204 0 -213 -1 -246 -23z m439 -79 c17 -17 17 -369 0 -386 -17 -17 -379
-17 -396 0 -17 17 -17 369 0 386 8 8 67 12 198 12 131 0 190 -4 198 -12z"/>
<path d="M515 2176 c-97 -43 -112 -160 -29 -225 33 -26 104 -28 144 -5 86 52
79 183 -13 225 -50 22 -62 23 -102 5z m73 -88 c34 -34 -6 -90 -48 -68 -35 19
-20 80 20 80 9 0 21 -5 28 -12z"/>
</g>
</svg>
